<?xml version="1.0" standalone="no"?>
<!DOCTYPE svg PUBLIC "-//W3C//DTD SVG 1.1//EN" "http://www.w3.org/Graphics/SVG/1.1/DTD/svg11.dtd" >
<svg xmlns="http://www.w3.org/2000/svg">
<metadata>
<json>
<![CDATA[
{
	"fontFamily": "wecandeoIcon",
	"majorVersion": 1,
	"minorVersion": 0,
	"description": "Font generated by IcoMoon.",
	"version": "Version 1.0",
	"fontId": "wecandeoIcon",
	"psName": "wecandeoIcon",
	"subFamily": "Regular",
	"fullName": "wecandeoIcon"
}
]]>
</json>
</metadata>
<defs>
<font id="wecandeoIcon" horiz-adv-x="1024">
<font-face units-per-em="1024" ascent="960" descent="-64" />
<missing-glyph horiz-adv-x="1024" />
<glyph unicode="&#x20;" horiz-adv-x="512" d="" />
<glyph unicode="&#xe900;" glyph-name="spinner2" data-tags="spinner" d="M384 832c0 70.695 57.305 128 128 128s128-57.305 128-128c0-70.695-57.305-128-128-128s-128 57.305-128 128zM655.537 719.537c0 70.695 57.305 128 128 128s128-57.305 128-128c0-70.695-57.305-128-128-128s-128 57.305-128 128zM832 448c0 35.348 28.652 64 64 64s64-28.652 64-64c0-35.348-28.652-64-64-64s-64 28.652-64 64zM719.537 176.463c0 35.348 28.652 64 64 64s64-28.652 64-64c0-35.348-28.652-64-64-64s-64 28.652-64 64zM448 64c0 0 0 0 0 0 0 35.348 28.652 64 64 64s64-28.652 64-64c0 0 0 0 0 0 0-35.348-28.652-64-64-64s-64 28.652-64 64zM176.463 176.463c0 0 0 0 0 0 0 35.348 28.652 64 64 64s64-28.652 64-64c0 0 0 0 0 0 0-35.348-28.652-64-64-64s-64 28.652-64 64zM144.463 719.537c0 0 0 0 0 0 0 53.012 42.988 96 96 96s96-42.988 96-96c0 0 0 0 0 0 0-53.012-42.988-96-96-96s-96 42.988-96 96zM56.005 448c0 39.759 32.236 71.995 71.995 71.995s71.995-32.236 71.995-71.995c0-39.759-32.236-71.995-71.995-71.995s-71.995 32.236-71.995 71.995z" />
<glyph unicode="&#xe901;" glyph-name="qulity" data-tags="qulity" d="M792.2 382.8c-35.6 61.8-14.2 141 47.8 177l-66.8 115.8c-19-11.2-41.2-17.6-65-17.6-71.4 0-129.2 58.2-129.2 130.2h-133.8c0.2-22.4-5.2-44.8-17.2-65.4-35.6-61.8-115-82.8-177.2-47l-66.8-115.8c19.2-11 36-27 47.8-47.4 35.6-61.8 14.2-140.8-47.6-176.8l66.8-115.8c19 11 41 17.4 64.8 17.4 71.2 0 129-57.8 129.2-129.4h133.6c0 22 5.4 44.2 17.2 64.6 35.6 61.6 114.8 82.8 177 47.2l66.8 115.8c-19.2 10.8-35.6 26.8-47.4 47.2zM512 310.2c-76 0-137.8 61.6-137.8 137.8s61.8 137.8 137.8 137.8c76 0 137.8-61.6 137.8-137.8s-61.6-137.8-137.8-137.8z" />
<glyph unicode="&#xe902;" glyph-name="inline-play" data-tags="inline-play" d="M640 413.24l-213.8-134-0.18 0.28c-1.335-0.857-2.903-1.718-4.528-2.475l-0.252-0.105h-0.18c-1.353-0.633-3.011-1.265-4.718-1.786l-0.282-0.074-0.36-0.1c-0.74-0.22-1.5-0.4-2.24-0.58h-0.4q-1.28-0.26-2.58-0.46h-0.42c-0.72 0-1.44-0.18-2.18-0.24h-0.68c-0.86 0-1.74 0-2.62 0-22.268 0-40.32 18.052-40.32 40.32v0 0 268.36c0.005 22.264 18.055 40.311 40.32 40.311 8.486 0 16.36-2.622 22.855-7.099l-0.135 0.088 212.32-132.7c12.203-7.081 20.278-20.084 20.278-34.974 0-14.744-7.917-27.638-19.732-34.664l-0.185-0.102zM512 828c0 0 0.001 0 0.001 0 209.868 0 380-170.132 380-380s-170.132-380-380-380c-209.868 0-380 170.132-380 380 0 104.934 42.533 199.934 111.299 268.7v0c68.389 68.752 163.062 111.301 267.673 111.301 0.361 0 0.722-0.001 1.082-0.002h-0.056zM512 878c-237.48 0-430-192.52-430-430s192.52-430 430-430 430 192.52 430 430-192.52 430-430 430z" />
<glyph unicode="&#xe903;" glyph-name="inline-pause" data-tags="inline-pause" d="M512 828c0 0 0.001 0 0.001 0 209.868 0 380-170.132 380-380s-170.132-380-380-380c-209.868 0-380 170.132-380 380 0 104.934 42.533 199.934 111.299 268.7v0c68.389 68.752 163.062 111.301 267.673 111.301 0.361 0 0.722-0.001 1.082-0.002h-0.056zM512 878c-237.48 0-430-192.52-430-430s192.52-430 430-430 430 192.52 430 430-192.52 430-430 430zM632.94 340.5c-0.503-21.878-18.358-39.422-40.31-39.422s-39.807 17.544-40.309 39.375l-0.001 0.047v214.9c-0.006 0.267-0.010 0.582-0.010 0.898 0 22.268 18.052 40.32 40.32 40.32s40.32-18.052 40.32-40.32c0-0.316-0.004-0.631-0.011-0.945l0.001 0.047c0-0.32 0-0.62 0-0.94v-213.020c0-0.32 0-0.62 0-0.94zM471.7 340.5c-0.503-21.878-18.358-39.422-40.31-39.422s-39.807 17.544-40.309 39.375l-0.001 0.047v214.9c-0.006 0.267-0.010 0.582-0.010 0.898 0 22.268 18.052 40.32 40.32 40.32s40.32-18.052 40.32-40.32c0-0.316-0.004-0.631-0.011-0.945l0.001 0.047c0-0.32 0-0.62 0-0.94v-213.020c-0.020-0.32 0-0.62 0-0.94z" />
<glyph unicode="&#xe904;" glyph-name="inline-volumeOff" data-tags="inline-volumeOff" d="M501.82 339.32c-4.523 0.015-8.694 1.515-12.052 4.037l0.052-0.037-69.36 50.44h-68c-0.024 0-0.052 0-0.080 0-11.206 0-20.3 9.045-20.379 20.233v68.008c0 0 0 0 0 0 0 11.234 9.090 20.346 20.317 20.38h67.563l69.020 56.48c3.485 2.917 8.016 4.688 12.96 4.688 11.189 0 20.26-9.071 20.26-20.26 0-0.045 0-0.090 0-0.135v0.007-183.4c0-0.018 0-0.039 0-0.060 0-11.227-9.079-20.334-20.296-20.38h-0.004zM682.28 470.9l-26.28-26.3 26.28-26.28c3.844-3.706 6.231-8.899 6.231-14.651 0-11.233-9.107-20.34-20.34-20.34-5.751 0-10.945 2.387-14.645 6.225l-26.286 26.306-26.28-26.3c-3.652-3.52-8.627-5.689-14.109-5.689-11.233 0-20.34 9.107-20.34 20.34 0 5.482 2.169 10.457 5.695 14.115l26.294 26.274-26.3 26.3c-3.52 3.652-5.689 8.627-5.689 14.109 0 11.233 9.107 20.34 20.34 20.34 5.482 0 10.457-2.169 14.115-5.695l26.274-26.294 26.28 26.3c3.652 3.52 8.627 5.689 14.109 5.689 11.233 0 20.34-9.107 20.34-20.34 0-5.482-2.169-10.457-5.695-14.115l0.006 0.006zM512 828c0 0 0.001 0 0.001 0 209.868 0 380-170.132 380-380s-170.132-380-380-380c-209.868 0-380 170.132-380 380 0 104.934 42.533 199.934 111.299 268.7v0c68.389 68.752 163.062 111.301 267.673 111.301 0.361 0 0.722-0.001 1.082-0.002h-0.056zM512 878c-237.48 0-430-192.52-430-430s192.52-430 430-430 430 192.52 430 430-192.52 430-430 430z" />
<glyph unicode="&#xe905;" glyph-name="inline-volumeOn" data-tags="inline-volumeOn" d="M512 828c0 0 0.001 0 0.001 0 209.868 0 380-170.132 380-380s-170.132-380-380-380c-209.868 0-380 170.132-380 380 0 104.934 42.533 199.934 111.299 268.7v0c68.389 68.752 163.062 111.301 267.673 111.301 0.361 0 0.722-0.001 1.082-0.002h-0.056zM512 878c-237.48 0-430-192.52-430-430s192.52-430 430-430 430 192.52 430 430-192.52 430-430 430zM635.62 299.44l-19.34 19.34c30.149 34.329 48.543 79.626 48.543 129.22s-18.395 94.891-48.734 129.441l0.191-0.221 19.34 19.34c34.987-39.338 56.361-91.458 56.361-148.57s-21.374-109.232-56.559-148.797l0.198 0.227zM582.66 352.4l-19.34 19.34c16.678 20.689 26.772 47.296 26.772 76.26s-10.093 55.571-26.955 76.494l0.183-0.234 19.34 19.34c21.539-25.699 34.622-59.122 34.622-95.6s-13.082-69.901-34.811-95.833l0.19 0.233zM501.8 339.32c-4.523 0.015-8.694 1.515-12.052 4.037l0.052-0.037-69.36 50.44h-68c-0.018 0-0.039 0-0.060 0-11.206 0-20.3 9.045-20.379 20.233v68.008c0 0 0 0 0 0 0 11.234 9.090 20.346 20.317 20.38h67.563l69.020 56.48c3.485 2.917 8.016 4.688 12.96 4.688 11.189 0 20.26-9.071 20.26-20.26 0-0.045 0-0.090 0-0.135v0.007-183.4c0-0.018 0-0.039 0-0.060 0-11.227-9.079-20.334-20.296-20.38h-0.004z" />
<glyph unicode="&#xe906;" glyph-name="inline-fullscreen" data-tags="inline-fullscreen" d="M816.82 108h-140.68c-0.25-0.006-0.544-0.010-0.839-0.010-19.429 0-35.18 15.751-35.18 35.18s15.751 35.18 35.18 35.18c0.295 0 0.589-0.004 0.882-0.011l-0.043 0.001h55.86l-174.94 174.86c-6.105 6.31-9.868 14.92-9.868 24.408 0 19.396 15.724 35.12 35.12 35.12 9.488 0 18.098-3.763 24.417-9.877l-0.010 0.009 174.94-174.86v55.86c-0.006 0.25-0.010 0.544-0.010 0.839 0 19.429 15.751 35.18 35.18 35.18s35.18-15.751 35.18-35.18c0-0.295-0.004-0.589-0.011-0.882l0.001 0.043v-140.7c0-19.418-15.742-35.16-35.16-35.16-0.007 0-0.014 0-0.021 0h0.001zM816.82 576.96c-19.429 0-35.18 15.751-35.18 35.18v55.86l-174.84-174.94c-6.31-6.105-14.92-9.868-24.408-9.868-19.396 0-35.12 15.724-35.12 35.12 0 9.488 3.763 18.098 9.877 24.417l-0.009-0.010 174.86 174.94h-55.86c-19.065 0.469-34.341 16.036-34.341 35.17s15.276 34.701 34.298 35.169l0.043 0.001h140.68c19.429 0 35.18-15.751 35.18-35.18v0-140.68c0-19.429-15.751-35.18-35.18-35.18v0zM466.94 353.2l-174.94-174.86h55.78c0.25 0.006 0.544 0.010 0.839 0.010 19.429 0 35.18-15.751 35.18-35.18s-15.751-35.18-35.18-35.18c-0.295 0-0.589 0.004-0.882 0.011l0.043-0.001h-140.6c-0.006 0-0.013 0-0.020 0-19.418 0-35.16 15.742-35.16 35.16 0 0.007 0 0.014 0 0.021v-0.001 140.68c-0.006 0.25-0.010 0.544-0.010 0.839 0 19.429 15.751 35.18 35.18 35.18s35.18-15.751 35.18-35.18c0-0.295-0.004-0.589-0.011-0.882l0.001 0.043v-55.86l174.86 174.86c6.31 6.105 14.92 9.868 24.408 9.868 19.396 0 35.12-15.724 35.12-35.12 0-9.488-3.763-18.098-9.877-24.417l0.009 0.010zM441.66 483.2c-9.512 0.021-18.13 3.833-24.426 10.006l-174.894 174.794v-55.78c0.006-0.25 0.010-0.544 0.010-0.839 0-19.429-15.751-35.18-35.18-35.18s-35.18 15.751-35.18 35.18c0 0.295 0.004 0.589 0.011 0.882l-0.001-0.043v140.6c0 19.429 15.751 35.18 35.18 35.18v0h140.68c0.25 0.006 0.544 0.010 0.839 0.010 19.429 0 35.18-15.751 35.18-35.18s-15.751-35.18-35.18-35.18c-0.295 0-0.589 0.004-0.882 0.011l0.043-0.001h-55.86l174.86-174.86c6.135-6.316 9.918-14.946 9.918-24.46 0-19.396-15.724-35.12-35.12-35.12-0.013 0-0.027 0-0.040 0h0.002z" />
<glyph unicode="&#xe907;" glyph-name="back" data-tags="back" d="M311.568 448.027l462.455 462.455c11.374 11.374 11.374 29.614 0 40.988s-29.614 11.374-40.988 0l-483.056-483.056c-11.374-11.374-11.374-29.614 0-40.988l483.056-482.842c5.58-5.58 13.090-8.584 20.387-8.584s14.807 2.79 20.387 8.584c11.374 11.374 11.374 29.614 0 40.988l-462.24 462.455z" />
<glyph unicode="&#xe908;" glyph-name="next" data-tags="next" d="M774.115 468.413l-483.056 483.056c-11.374 11.374-29.614 11.374-40.988 0s-11.374-29.614 0-40.988l462.455-462.455-462.455-462.455c-11.374-11.374-11.374-29.614 0-40.988 5.58-5.58 13.090-8.584 20.387-8.584s14.807 2.79 20.387 8.584l483.056 483.056c11.374 11.159 11.374 29.614 0.215 40.773z" />
<glyph unicode="&#xe909;" glyph-name="PIP-mode" data-tags="PIP-mode" d="M181.562 639.105l167.167-151.739-111.816-5.965 2.306-44.217 187.288 10.021-9.941 187.288-44.217-2.386 5.965-111.896-167.167 151.819-29.584-32.925zM900.811 785.993v-336.641h-64.736v272.065h-720.84v-480.746h322.644v-64.656h-387.38v609.978zM480.348 404.737h493.152v-294.73h-493.152v294.73z" />
<glyph unicode="&#xe90a;" glyph-name="wecandeo-logo-w03" data-tags="wecandeo-logo-w03" horiz-adv-x="5069" d="M1078.4 465.152l-14.72 13.568c-1.664 2.048-3.584 4.224-5.76 6.528-2.304 2.432-20.352 18.56-20.352 18.56l-27.136 24.192-15.744 14.592s-0.256 0.256-0.256 0.256l-88.704 79.104 0.384-0.64-20.096 18.048s-7.68 6.656-11.52 8.448c-4.48 2.176-10.752 4.48-16.64 4.48-9.344 0-17.664-5.888-16.64-27.392 0-1.664 1.536-7.68 3.328-12.16 10.752-25.6 53.504-107.904 51.456-178.816 0-4.096-1.152-18.176-2.56-33.92-23.424-56.576-51.328-121.344-51.328-121.344-6.656-40.704 18.56-34.944 30.976-29.824 3.84 1.536 11.904 7.68 11.904 7.68l165.376 134.272s18.944 15.104 21.248 17.28c35.968 33.152 6.912 57.216 6.912 57.216zM801.536 717.696c-1.536 3.84-7.808 11.904-7.808 11.904l-134.272 165.376s-15.104 18.816-17.28 21.248c-12.672 13.696-23.936 18.048-33.152 18.048-14.848 0-24.064-11.136-24.064-11.136l-13.696-14.848c-2.048-1.664-4.224-3.456-6.4-5.632-2.304-2.304-18.56-20.352-18.56-20.352l-23.296-26.112-15.488-16.768s-0.128-0.256-0.256-0.384l-79.104-88.704 0.512 0.256-17.92-19.968s-6.656-7.68-8.448-11.52c-5.504-11.648-12.288-35.072 22.912-33.28 1.664 0 7.68 1.536 12.032 3.328 25.728 10.752 107.904 53.504 178.816 51.456 4.096 0 18.176-1.152 33.792-2.56 56.576-23.424 121.344-51.2 121.344-51.2 40.704-6.656 34.944 18.56 29.824 30.976zM781.312 209.792c-1.152 0-2.432 0-3.712 0-1.664 0-7.68-1.408-12.16-3.328-25.728-10.752-107.904-53.504-178.944-51.456-4.096 0-18.048 1.152-33.792 2.56-56.576 23.424-121.472 51.328-121.472 51.328-4.608 0.768-8.576 1.152-12.16 1.152-27.264 0-22.144-21.12-17.664-32 1.536-3.968 7.808-11.904 7.808-11.904l134.272-165.376s15.104-18.816 17.28-21.248c33.152-35.968 57.216-6.912 57.216-6.912l13.568 14.592c2.176 1.664 4.352 3.584 6.528 5.76 2.304 2.304 18.56 20.352 18.56 20.352l24.32 27.136 14.464 15.616s0.256 0.256 0.256 0.384l79.104 88.704-0.512-0.256 17.92 19.968s6.656 7.68 8.448 11.52c5.376 11.264 11.776 33.408-19.2 33.408zM360.192 284.544c-10.752 25.728-53.504 107.904-51.456 178.816 0 4.096 1.28 18.176 2.56 33.92 23.424 56.576 51.2 121.344 51.2 121.344 4.352 26.752-4.992 33.408-15.488 33.408-5.504 0-11.136-1.792-15.488-3.584-3.84-1.536-11.904-7.68-11.904-7.68l-165.376-134.272s-18.816-15.104-21.248-17.408c-35.968-33.152-6.912-57.216-6.912-57.216l14.848-13.696c1.664-2.048 3.584-4.224 5.632-6.4 2.304-2.432 20.352-18.56 20.352-18.56l26.112-23.296 16.768-15.488s0.256-0.128 0.384-0.256l88.704-78.976-0.256 0.512 19.968-17.92s7.68-6.656 11.52-8.448c11.648-5.504 35.072-12.288 33.28 22.912 0 1.664-1.536 7.68-3.328 12.16zM1860.224 696.96l-118.528-406.784-123.136 406.272-44.16 0.512-122.496-405.76-119.424 405.76-49.152-0.512 144.128-487.296 3.584-12.288h43.136l122.88 407.552 124.288-407.552h43.136l144.896 499.584-49.152 0.512zM1987.584 244.096v188.8h278.528v47.36h-278.528v169.216h296.192v47.232h-343.424v-499.84h345.984v47.232h-298.752zM2718.464 413.696l-2.048-14.848c-6.784-49.92-25.728-90.496-56.064-120.96-30.208-30.208-68.992-44.928-118.656-44.928-55.424 0-98.304 19.712-130.816 60.16-33.024 41.088-49.664 91.392-49.664 149.76 0 54.912 16.128 105.856 47.872 151.68 30.72 44.416 76.928 66.048 141.056 66.048 44.8 0 80.64-12.288 109.44-37.504 28.544-25.088 43.648-52.608 46.336-84.48l1.28-15.616h45.952v17.152c0 39.040-18.816 77.056-56.064 113.28-37.12 36.096-86.528 54.4-146.944 54.4-78.976 0-139.008-27.52-178.432-81.664-38.272-52.48-57.728-114.176-57.728-183.168 0-74.368 21.12-136.32 62.976-184.064 42.368-48.384 97.792-73.088 164.864-73.088 61.824 0 112.768 19.456 151.296 57.856 38.016 37.76 61.696 88.448 70.4 150.656l2.816 19.456h-47.616zM3017.728 685.952l-4.352 10.752h-40.064l-203.008-499.968 51.712 0.256 62.208 153.088h213.888l61.312-153.472 51.328 0.384-193.024 488.832zM3079.68 397.44h-176.896l90.496 222.848 86.4-222.848zM3577.856 696.704l-1.28-412.8-292.352 412.8h-45.44v-499.84h47.232l1.152 413.952 292.736-413.44 45.184-0.896v500.224h-47.232zM4012.8 639.232c-41.472 38.4-92.16 57.984-150.912 57.984h-176.512v-499.584h155.392c65.92 0 121.984 20.992 166.784 62.336 45.056 41.472 67.84 104.576 67.84 187.392 0 88.704-21.12 153.216-62.72 191.744zM3709.952 672.384h148.48c54.784 0 101.12-17.28 137.472-51.2s54.656-92.416 54.656-173.824c0-73.344-19.584-129.92-58.24-167.808-38.656-38.016-88.576-57.216-148.352-57.216h-134.016v450.176zM4152.064 222.336v222.976h292.224v24.704h-292.224v202.368h310.656v24.704h-335.36v-499.456h338.048v24.704h-313.344zM4904.448 635.136c-40.32 49.536-97.024 74.752-168.576 74.752s-128.256-25.088-168.576-74.752c-40.064-49.28-60.416-111.36-60.416-184.704s20.352-135.552 60.416-184.832c40.32-49.536 96.896-74.624 168.576-74.624s128.256 25.088 168.576 74.624c40.064 49.152 60.288 111.36 60.288 184.832s-20.352 135.552-60.288 184.704zM4735.872 215.552c-62.336 0-112.384 21.888-148.864 64.896-36.864 43.264-55.424 100.48-55.424 169.984s18.688 126.592 55.424 169.856c36.48 43.136 86.528 64.896 148.864 64.896s112.384-21.888 148.864-64.896c36.736-43.392 55.424-100.48 55.424-169.856s-18.56-126.592-55.424-169.984c-36.608-43.008-86.656-64.896-148.864-64.896z" />
<glyph unicode="&#xe90b;" glyph-name="cast-2" data-tags="cast-2" d="M42.667 832v-256h85.333v170.667h768v-597.333h-341.333v-85.333h426.667v768h-938.667zM90.083 488.25c-1.429 0.17-3.085 0.267-4.763 0.267-21.897 0-39.941-16.494-42.385-37.736l-0.018-0.197c-0.164-1.405-0.258-3.032-0.258-4.681 0-21.893 16.49-39.935 37.727-42.384l0.198-0.019c45.561-5.068 89.365-19.282 128.833-41.333 27.26-15.23 52.446-34.195 74.833-56.583 54.802-54.8 89.35-126.639 97.917-203.667 2.467-21.435 20.509-37.924 42.402-37.924 1.649 0 3.276 0.094 4.877 0.276l-0.196-0.018c21.439 2.463 37.933 20.507 37.933 42.403 0 1.678-0.097 3.334-0.285 4.962l0.019-0.198c-10.707 96.267-53.842 186.011-122.333 254.5-27.98 27.981-59.509 51.712-93.583 70.75-49.335 27.564-103.978 45.25-160.917 51.583zM80.5 315.417c-18.469-2.151-33.215-15.824-36.951-33.555l-0.049-0.278c-0.546-2.56-0.859-5.502-0.859-8.517 0-20.565 14.549-37.731 33.915-41.768l0.277-0.048c32.803-6.691 62.911-22.829 86.583-46.5 23.67-23.669 39.81-53.781 46.5-86.583 4.086-19.643 21.252-34.192 41.817-34.192 3.015 0 5.956 0.313 8.794 0.907l-0.278-0.049c19.604 4.117 34.112 21.264 34.112 41.8 0 3.021-0.314 5.968-0.911 8.811l0.049-0.278c-10.033 49.194-34.247 94.416-69.75 129.917-35.501 35.499-80.724 59.716-129.917 69.75-2.558 0.545-5.497 0.857-8.509 0.857-1.7 0-3.377-0.099-5.025-0.293l0.2 0.019zM85.333 149.333c-23.564 0-42.667-19.103-42.667-42.667v0c0-23.564 19.103-42.667 42.667-42.667v0h0.417c23.564 0 42.667 19.103 42.667 42.667v0c0 23.564-19.103 42.667-42.667 42.667v0h-0.417z" />
<glyph unicode="&#xe90c;" glyph-name="fullscreen-custom---" data-tags="fullscreen-custom - 복사본" d="M77.571 580.789c-15.867 13.931-29.446 68.172-33.265 132.877-0.688 11.662-1.257 62.073-1.264 112.025l-0.012 90.821 111.942-0.534c116.825-0.557 121.705-0.76 155.596-6.465 42.716-7.191 69.079-19.016 72.464-32.503 2.618-10.43-14.453-24.047-40.409-32.233-26.466-8.347-43.926-10.614-92.548-12.014-43.194-1.244-58.691-2.569-73.085-6.251-22.385-5.725-35.607-17.62-41.837-37.638-4.876-15.666-6.188-28.258-7.342-70.458-1.448-52.952-4.047-76.003-11.364-100.79-9.472-32.086-26.217-47.954-38.877-36.838zM927.403 583.143c-19.478 19.478-31.166 71.57-31.228 139.188-0.034 36.705-4.449 64.587-12.436 78.548-7.281 12.725-19.441 21.212-36.729 25.634-14.289 3.654-29.776 4.993-72.461 6.265-41.198 1.227-54.794 2.642-77.385 8.054-30.373 7.276-53.379 20.065-56.181 31.229-1.972 7.858 7.57 18.008 22.945 24.409 10.982 4.572 33.142 10.411 49.505 13.046 36.009 5.797 38.674 5.908 155.596 6.464l111.942 0.533-0.006-91.445c-0.004-50.295-0.587-102.109-1.297-115.143-4.378-80.406-20.626-132.833-41.167-132.833-4.37 0-5.854 0.809-11.097 6.052zM763.946-18.955c-32.634 2.601-68.266 9.272-90.281 16.903-32.769 11.359-40.672 23.338-24.955 37.825 11.634 10.724 38.277 20.065 69.535 24.378 7.832 1.081 31.856 2.423 55.056 3.077 22.638 0.638 46.459 1.79 52.937 2.56 44.752 5.32 60.95 20.446 67.439 62.979 0.727 4.767 1.847 26.776 2.489 48.909s2.040 47.391 3.106 56.127c5.917 48.474 22.846 85.107 39.331 85.107 20.431 0 36.696-52.613 41.064-132.833 0.71-13.034 1.293-64.811 1.297-115.060l0.006-91.362-101.963 0.173c-56.080 0.096-107.857 0.643-115.060 1.217zM43.043 70.392c0.007 49.906 0.575 100.28 1.264 111.942 4.539 76.903 22.583 136.575 41.298 136.575 9.254 0 16.965-6.969 24.149-21.827 11.975-24.766 18.049-66.016 18.080-122.789 0.014-25.554 1.919-45.89 5.708-60.932 7.639-30.328 24.548-42.853 64.222-47.576 6.477-0.771 30.86-1.926 54.184-2.566 41.032-1.127 55.754-2.436 76.706-6.823 18.505-3.874 35.6-10.812 45.115-18.309 5.819-4.585 10.258-13.435 9.186-18.315-3.713-16.903-57.396-33.528-125.332-38.813-9.726-0.757-58.338-1.305-115.683-1.305h-98.908z" />
<glyph unicode="&#xe917;" glyph-name="player_type1" data-tags="player_type1" d="M1011.503 466.175l-15.372 14.255c-2.001 2.511-3.983 4.749-6.072 6.881-2.362 2.48-21.369 19.468-21.369 19.468l-27.299 24.376-17.748 16.441c-0.104 0.086-0.221 0.164-0.345 0.232l-93.122 83.019 0.333-0.618-21.074 18.841c-3.57 3.169-7.516 6.094-11.707 8.656-12.575 6.003-37.117 13.083-35.312-23.909 0.74-4.764 1.974-9.041 3.675-13.072 11.103-26.581 56.006-112.92 53.868-187.475-0.119-4.277-1.259-19.007-2.685-35.638-24.59-59.397-53.861-127.465-53.861-127.465-6.985-42.766 19.482-36.66 32.478-31.338 4.762 2.543 8.852 5.237 12.671 8.259l173.454 140.851s19.791 15.847 22.286 18.175c37.776 34.759 7.199 60.062 7.199 60.062zM720.673 731.489c-2.536 4.759-5.239 8.85-8.276 12.662l-140.762 173.487s-15.823 19.791-18.152 22.167c-34.854 37.824-60.062 7.128-60.062 7.128l-14.255-15.324c-2.547-2.022-4.816-4.028-6.976-6.144-2.361-2.362-19.42-21.369-19.42-21.369l-24.448-27.275-16.275-17.558c-0.090-0.1-0.163-0.219-0.211-0.349l-83.039-93.118 0.618 0.333-18.817-21.145c-3.168-3.568-6.086-7.514-8.635-11.709-6.024-12.596-13.081-37.139 23.912-35.31 4.757 0.739 9.026 1.965 13.053 3.652 26.6 11.126 112.939 56.053 187.47 53.868 4.277-0.119 19.007-1.259 35.638-2.708 59.397-24.59 127.465-53.837 127.465-53.837 42.623-6.938 36.588 19.601 31.171 32.549zM695.726 197.94c-4.761-0.704-9.049-1.933-13.081-3.647-26.62-11.131-112.959-56.035-187.49-53.873-4.277 0.119-19.007 1.259-35.638 2.685-59.397 24.59-127.513 53.861-127.513 53.861-42.766 7.009-36.612-19.506-31.338-32.478 2.545-4.761 5.247-8.851 8.279-12.667l140.878-173.412s15.871-19.815 18.175-22.309c34.806-37.824 60.086-7.128 60.086-7.128l14.255 15.348c2.539 2.015 4.8 4.013 6.953 6.121 2.361 2.361 19.419 21.368 19.419 21.368l25.374 28.51 15.348 16.631c0.116 0.1 0.206 0.228 0.259 0.374l83.039 93.14-0.57-0.309 18.793 21.026c3.15 3.57 6.066 7.515 8.628 11.7 6.055 12.367 13.111 36.934-23.858 35.057zM257.235 276.581c-11.238 26.942-56.142 113.305-54.004 187.836 0.119 4.277 1.259 19.007 2.708 35.638 24.59 59.397 53.837 127.465 53.837 127.465 6.985 42.766-19.506 36.66-32.478 31.338-4.772-2.545-8.87-5.239-12.698-8.26l-173.428-140.826s-19.815-15.871-22.309-18.199c-37.776-34.83-7.128-60.062-7.128-60.062l15.443-14.255c1.986-2.483 3.952-4.698 6.024-6.808 2.363-2.481 21.37-19.493 21.37-19.493l28.083-25.065 16.94-15.681 0.356-0.261 93.134-82.989-0.309 0.594 21.050-18.817c3.572-3.157 7.516-6.081 11.701-8.651 12.58-5.984 37.171-13.088 35.318 23.905-0.772 4.728-2.029 8.96-3.747 12.947zM617.013 461.733l-165.622 98.575c-1.842 1.169-4.079 1.873-6.479 1.901-6.568 0-11.887-5.318-11.887-11.879v0-204.634c0-6.561 5.319-11.879 11.879-11.879 2.474 0.093 4.758 0.832 6.71 2.053l165.375 98.423c3.929 3.308 6.408 8.23 6.408 13.731 0 5.49-2.469 10.403-6.358 13.689z" />
<glyph unicode="&#xe918;" glyph-name="player_type2" data-tags="player_type2" d="M393.62 644.473l336.842-196.473-336.842-196.473v392.947zM512 892.632c0.004 0 0.009 0 0.014 0 245.563 0 444.632-199.068 444.632-444.632s-199.068-444.632-444.632-444.632c-245.563 0-444.632 199.068-444.632 444.632 0 122.778 49.764 233.933 130.223 314.395 80.020 80.45 190.797 130.238 313.203 130.238 0.419 0 0.838-0.001 1.257-0.002zM512 960c-282.759 0-512-229.241-512-512s229.241-512 512-512 512 229.241 512 512-229.241 512-512 512v0z" />
<glyph unicode="&#xe91b;" glyph-name="player_type4" data-tags="player_type4" d="M102.4 960v-1024l819.2 512-819.2 512z" />
<glyph unicode="&#xe91c;" glyph-name="alert" data-tags="alert" d="M935.207 136.409l-393.196 662.193c-8.192 13.804-20.992 21.602-34.993 21.602-14.198 0-27.195-7.995-35.19-21.996l-382.996-661.996c-8.192-14.001-8.606-29.007-1.595-41.393 6.991-12.209 20.401-19.397 36.608-19.397h776.999c16.207 0 29.598 6.991 36.608 19.397 6.794 12.603 6.203 27.806-2.206 41.59zM868.194 126.996h-712.999c-6.991 0-10.004 5.002-6.4 11.205l351.606 607.606c3.604 6.203 9.393 6.203 12.997 0l361.196-607.803c3.604-6.006 0.807-11.008-6.4-11.008zM515.407 281.6c15.399 0 28.396 13.607 29.007 30.405l10.201 247.808c0.807 16.798-12.406 30.208-29.007 30.208h-27.806c-16.798 0-29.401-13.607-28.396-30.208l16.207-247.808c1.201-16.798 14.395-30.405 29.794-30.405zM525.804 251.195h-27.806c-16.798 0-30.405-13.607-30.405-30.405v-27.806c0-16.798 13.607-30.405 30.405-30.405h27.806c16.798 0 30.405 13.607 30.405 30.405v27.806c0 16.798-13.607 30.405-30.405 30.405z" />
<glyph unicode="&#xe91d;" glyph-name="close" data-tags="close" d="M810.201 788.007l-299.008-298.594-297.393 297.196-41.807-41.807 297.61-296.802-297.61-297.196 41.807-41.393 297.393 296.802 299.008-298.201 41.807 41.393-299.008 298.594 299.008 298.201z" />
<glyph unicode="&#xe91e;" glyph-name="play" data-tags="play" d="M256 768v-640l512 320-512 320z" />
<glyph unicode="&#xe91f;" glyph-name="pause" data-tags="pause" d="M256 768h157.991v-640h-157.991v640zM610.009 768h157.991v-640h-157.991v640z" />
<glyph unicode="&#xe920;" glyph-name="rewind" data-tags="rewind" d="M512 704l-448-256 448-256v246.39l448-246.39v512l-448-246.39v246.41z" />
<glyph unicode="&#xe921;" glyph-name="fastforward" data-tags="fastforward" d="M512 704v-246.39l-448 246.41v-512l448 246.39v-246.39l448 256-448 256z" />
<glyph unicode="&#xe922;" glyph-name="skipbackward" data-tags="skipbackward" d="M221.007 768v-640h99.998v283.609l482.009-283.609v640l-482.009-283.609v283.609h-99.998z" />
<glyph unicode="&#xe923;" glyph-name="skipforward" data-tags="skipforward" d="M702.996 768v-283.609l-482.009 283.609v-640l482.009 283.609v-283.609h99.998v640h-99.998z" />
<glyph unicode="&#xe924;" glyph-name="volume-unmuted" data-tags="volume-unmuted" d="M462.001 144.404v606.996l-189.794-175.399h-208.207v-256h208.207zM574.208 248.596c40.999 55.808 65.595 124.593 65.595 199.404s-24.596 143.596-65.595 199.404l-40.802-30.602c34.796-47.202 55.591-105.393 55.591-168.802 0-63.193-20.795-121.6-55.591-168.606l40.802-30.799zM707.407 156.593c60.002 81.408 96 182.193 96 291.407s-35.998 209.802-96 291.407l-40.802-30.602c53.799-72.802 85.996-162.993 85.996-260.805s-32.197-187.806-85.996-260.608l40.802-30.799zM793.403 801.201c72.802-98.599 115.791-221.007 115.791-353.201s-43.008-254.405-115.791-353.201l40.999-30.799c78.809 107.205 125.598 240.010 125.598 384s-46.809 276.795-125.598 384l-40.999-30.799z" />
<glyph unicode="&#xe925;" glyph-name="volume-muted" data-tags="volume-muted" d="M710.991 144.404v606.996l-189.794-175.399h-208.207v-256h208.207z" />
<glyph unicode="&#xe926;" glyph-name="quality" data-tags="quality" d="M147.003 687.99h106.201l-38.991-184.202h194.206l38.991 184.202h106.201l-101.593-479.606h-106.004l43.599 206.809h-194.402l-43.599-206.809h-106.004l101.396 479.606zM601.6 687.99h173.391c133.809 0 203.402-69.396 203.402-186.998 0-167.207-92.593-293.002-277.406-293.002h-200.999l101.593 480zM624.601 296.606h81.408c107.402 0 167.207 84.795 167.207 186.191 0 69.396-29.401 116.401-104.999 116.401h-79.202l-64.394-302.592z" />
<glyph unicode="&#xe927;" glyph-name="subtitle-02" data-tags="subtitle-02" d="M795.609 738.599h-567.001c-31.193 0-56.596-25.403-56.596-56.596v-372.401c0-31.409 25.403-56.596 56.596-56.596h40.409v-194.206l113.191 194.206h413.007c31.409 0 56.596 25.403 56.596 56.596v372.401c0.394 31.193-25.009 56.596-56.202 56.596zM755.003 349.991h-291.604v48.601h291.407l0.197-48.601zM755.003 455.798h-486.006v48.601h486.006v-48.601zM755.003 552.999h-486.006v48.601h486.006v-48.601zM464.404 331.402h291.407v-48.601h-291.407v48.601z" />
<glyph unicode="&#xe928;" glyph-name="subtitle-01" data-tags="subtitle-01" d="M407.394 523.993c-6.4 45.391-49.802 79.793-99.801 79.793-89.994 0-124.002-76.603-124.002-156.396 0-76.209 33.792-152.793 124.002-152.793 61.401 0 95.803 42.201 103.404 102.4h97.201c-10.201-113.605-89.994-188.79-201.59-188.79-141.194 0-223.193 107.599-223.193 239.202 0 135.207 83.2 240.798 224 240.798 100.391 0 184.596-58.998 196.805-163.998h-96.807zM839.601 523.993c-6.4 45.391-49.802 79.793-99.801 79.793-89.994 0-124.002-76.603-124.002-156.396 0-76.209 33.792-152.793 124.002-152.793 61.401 0 95.803 42.201 103.404 102.4h97.201c-10.201-113.605-91.392-188.79-203.205-188.79-141.194 0-221.598 107.599-221.598 239.202 0 135.207 83.2 240.798 224 240.798 100.391 0 184.596-58.998 196.805-163.998h-96.807z" />
<glyph unicode="&#xe929;" glyph-name="share" data-tags="share" d="M618.004 810.201v-119.394c-29.794 0-57.009-2.993-81.605-8.606-48.207-10.791-86.804-31.193-117.406-56.596-115.594-96-121.009-263.404-121.009-263.404 87.591 143.006 152.005 192 320 192v-127.803l256 190.996-256 192.807zM702.208 226.599h-539.609v399.006h152.005c14.001 14.809 36.805 36.194 68.608 56.596v0h-277.209v-512.197h652.8v256.197l-56.596-46.395v-153.206z" />
<glyph unicode="&#xe92a;" glyph-name="fullscreen-expand" data-tags="fullscreen-expand" d="M550.203 546.402l135.798 135.601-106.004 106.004h272.010v-272.010l-106.004 106.004-135.601-135.798zM550.203 349.598l135.798-135.601-106.004-106.004h272.010v272.010l-106.004-106.004-135.601 135.798zM473.797 349.598l-135.798-135.601 106.004-106.004h-272.010v272.010l106.004-106.004 135.601 135.798zM473.797 546.402l-135.798 135.601 106.004 106.004h-272.010v-272.010l106.004 106.004 135.601-135.798z" />
<glyph unicode="&#xe92b;" glyph-name="fullscreen-shrink" data-tags="fullscreen-shrink" d="M852.007 737.792l-144.994-144.798 88.399-88.399h-226.796v226.796l88.399-88.399 144.798 144.994zM852.007 158.208l-144.994 144.798 88.399 88.399h-226.796v-226.796l88.399 88.399 144.798-144.994zM171.993 158.208l144.994 144.798-88.399 88.399h226.796v-226.796l-88.399 88.399-144.798-144.994zM171.993 737.792l144.994-144.798-88.399-88.399h226.796v226.796l-88.399-88.399-144.798 144.994z" />
<glyph unicode="&#xe92c;" glyph-name="more" data-tags="more" d="M511.606 512c-35.407 0-64-28.593-64-64s28.593-64 64-64 64 28.593 64 64-28.593 64-64 64v0zM256.394 512c-35.407 0-64-28.593-64-64s28.593-64 64-64 64 28.593 64 64-28.81 64-64 64v0zM767.606 512c-35.407 0-64-28.593-64-64s28.593-64 64-64 64 28.593 64 64-28.593 64-64 64v0z" />
<glyph unicode="&#x1f323;" d="M80.842 960h862.316c44.648 0 80.842-36.194 80.842-80.842v-862.316c0-44.648-36.194-80.842-80.842-80.842h-862.316c-44.648 0-80.842 36.194-80.842 80.842v862.316c0 44.648 36.194 80.842 80.842 80.842z" />
<glyph unicode="&#x1f324;" d="M640.755 449.293l-207.171 123.311c-2.296 1.455-5.084 2.333-8.074 2.371-8.164-0.061-14.751-6.685-14.751-14.848 0-0.010 0-0.019 0-0.029v0.001-256c0-0.008 0-0.018 0-0.027 0-8.162 6.586-14.787 14.734-14.848 3.107 0.095 5.977 1.005 8.433 2.521l206.882 123.107c4.935 4.136 8.050 10.303 8.050 17.197 0 6.919-3.138 13.105-8.068 17.213z" />
</font>
</defs>
</svg>
